<?xml version="1.0" standalone="no"?>
<!DOCTYPE svg PUBLIC "-//W3C//DTD SVG 20010904//EN"
 "http://www.w3.org/TR/2001/REC-SVG-20010904/DTD/svg10.dtd">
<svg version="1.0" xmlns="http://www.w3.org/2000/svg"
 width="300.000000pt" height="300.000000pt" viewBox="0 0 300.000000 300.000000"
 preserveAspectRatio="xMidYMid meet">
<metadata>
Created by potrace 1.10, written by Peter Selinger 2001-2011
</metadata>
<g transform="translate(0.000000,300.000000) scale(0.100000,-0.100000)"
fill="#000000" stroke="none">
<path d="M395 2739 c-93 -49 -173 -90 -178 -91 -5 -2 222 -1046 269 -1233 6
-23 4 -25 -23 -19 l-30 6 -7 -358 c-3 -197 -3 -361 1 -365 12 -12 1766 -579
1790 -579 17 0 59 67 234 377 117 208 215 380 219 383 4 3 14 142 22 310 17
336 16 340 -42 340 -29 0 -963 109 -965 113 -1 1 -46 227 -99 502 -54 275
-100 509 -102 521 -4 15 -14 20 -37 22 -18 0 -218 37 -446 82 -228 44 -419 80
-425 79 -6 0 -87 -41 -181 -90z m647 -36 l407 -78 15 -85 c9 -47 53 -273 99
-502 l83 -418 -49 -16 c-26 -9 -51 -14 -54 -11 -3 4 -8 21 -12 39 -5 20 -13
32 -22 32 -18 -2 -392 -123 -398 -130 -3 -2 3 -27 11 -55 12 -37 13 -51 5 -54
-139 -49 -190 -65 -194 -61 -3 2 -79 316 -169 698 -90 381 -167 702 -170 712
-5 16 -2 18 17 13 13 -4 207 -42 431 -84z m-311 -671 c93 -393 169 -716 169
-719 0 -2 -3 -2 -8 1 -4 2 -86 18 -182 36 -96 17 -175 32 -176 33 -1 1 -226
999 -277 1229 -1 5 66 44 148 88 124 65 151 76 153 62 2 -9 80 -338 173 -730z
m774 -452 c4 -22 10 -40 14 -40 4 0 34 9 67 21 48 17 72 19 134 14 95 -8 913
-105 917 -108 2 -3 -164 -183 -300 -325 l-69 -72 -342 61 c-187 33 -474 85
-636 114 -162 29 -306 55 -320 57 -14 2 -25 6 -25 11 0 4 54 26 120 48 66 23
121 42 122 43 2 1 -6 26 -17 54 -11 29 -19 52 -17 52 1 1 76 25 167 55 91 29
168 54 172 54 3 1 9 -17 13 -39z m1160 -187 c-2 -21 -10 -143 -16 -271 l-11
-234 -170 -301 c-94 -166 -183 -324 -199 -352 l-30 -50 6 80 c3 44 14 234 25
423 l19 343 73 79 c40 43 123 133 183 199 61 65 113 120 118 120 4 1 5 -16 2
-36z m-1315 -198 c473 -85 870 -155 881 -155 21 0 21 -3 15 -82 -3 -46 -15
-247 -27 -448 -11 -200 -21 -365 -22 -366 -2 -3 -1730 557 -1736 562 -7 6 12
644 20 644 4 0 395 -70 869 -155z"/>
<path d="M951 2313 c-101 -4 -103 -4 -97 -26 3 -12 25 -111 48 -219 40 -182
45 -197 63 -193 11 3 139 21 285 41 145 19 266 37 268 39 2 2 -10 59 -26 127
-17 68 -36 149 -43 181 l-12 57 -191 -2 c-105 -1 -238 -4 -295 -5z m488 -178
c18 -81 31 -148 29 -149 -6 -5 -489 -68 -492 -64 -3 3 -76 340 -76 349 0 3
114 7 253 8 l253 2 33 -146z"/>
<path d="M1663 1393 c-145 -75 -263 -140 -263 -143 0 -6 272 -60 304 -60 20 0
486 288 486 300 0 8 -101 24 -210 35 -55 6 -55 6 -317 -132z m409 107 l97 -12
-230 -144 -231 -144 -136 25 c-75 14 -137 26 -138 28 -7 7 504 265 521 262 11
-2 64 -9 117 -15z"/>
<path d="M820 791 l0 -129 105 -26 c57 -14 107 -26 110 -26 3 0 5 57 5 128 l0
127 -103 28 c-56 15 -105 27 -109 27 -5 0 -8 -58 -8 -129z m113 62 l67 -17 0
-89 0 -89 -32 8 c-18 3 -50 12 -71 18 l-38 11 -2 88 c-1 48 0 87 3 87 3 0 35
-8 73 -17z"/>
<path d="M1290 776 c-1 -9 -1 -68 -1 -132 l0 -117 105 -27 c58 -15 108 -25
111 -22 3 3 5 61 5 128 l0 123 -37 10 c-116 30 -150 39 -165 46 -13 5 -18 2
-18 -9z m66 -46 c16 -5 48 -14 72 -20 l42 -11 0 -90 c0 -89 0 -90 -22 -83 -13
4 -45 13 -72 19 l-48 11 -2 92 c0 51 -1 92 0 92 1 0 14 -4 30 -10z"/>
</g>
</svg>
