<?xml version="1.0" standalone="no"?>
<!DOCTYPE svg PUBLIC "-//W3C//DTD SVG 20010904//EN"
 "http://www.w3.org/TR/2001/REC-SVG-20010904/DTD/svg10.dtd">
<svg version="1.0" xmlns="http://www.w3.org/2000/svg"
 width="1951.000000pt" height="1951.000000pt" viewBox="0 0 1951.000000 1951.000000"
 preserveAspectRatio="xMidYMid meet">

<g transform="translate(0.000000,1951.000000) scale(0.100000,-0.100000)"
fill="#000000" stroke="none">
<path d="M4073 17923 c9 -2 23 -2 30 0 6 3 -1 5 -18 5 -16 0 -22 -2 -12 -5z"/>
<path d="M4133 17913 c9 -2 23 -2 30 0 6 3 -1 5 -18 5 -16 0 -22 -2 -12 -5z"/>
<path d="M4198 17903 c7 -3 16 -2 19 1 4 3 -2 6 -13 5 -11 0 -14 -3 -6 -6z"/>
<path d="M4255 17890 c17 -4 41 -8 55 -8 22 0 22 1 -5 8 -16 4 -41 8 -55 8
-22 0 -22 -1 5 -8z"/>
<path d="M4550 17840 c14 -4 39 -8 55 -8 l30 0 -30 8 c-16 4 -41 8 -55 8 l-25
0 25 -8z"/>
<path d="M4648 17823 c7 -3 16 -2 19 1 4 3 -2 6 -13 5 -11 0 -14 -3 -6 -6z"/>
<path d="M4768 17803 c7 -3 16 -2 19 1 4 3 -2 6 -13 5 -11 0 -14 -3 -6 -6z"/>
<path d="M4823 17793 c9 -2 23 -2 30 0 6 3 -1 5 -18 5 -16 0 -22 -2 -12 -5z"/>
<path d="M4998 17763 c6 -2 18 -2 25 0 6 3 1 5 -13 5 -14 0 -19 -2 -12 -5z"/>
<path d="M5118 17743 c6 -2 18 -2 25 0 6 3 1 5 -13 5 -14 0 -19 -2 -12 -5z"/>
<path d="M5228 17723 c6 -2 18 -2 25 0 6 3 1 5 -13 5 -14 0 -19 -2 -12 -5z"/>
<path d="M5288 17713 c6 -2 18 -2 25 0 6 3 1 5 -13 5 -14 0 -19 -2 -12 -5z"/>
<path d="M5348 17703 c7 -3 16 -2 19 1 4 3 -2 6 -13 5 -11 0 -14 -3 -6 -6z"/>
<path d="M5408 17693 c7 -3 16 -2 19 1 4 3 -2 6 -13 5 -11 0 -14 -3 -6 -6z"/>
<path d="M5468 17683 c6 -2 18 -2 25 0 6 3 1 5 -13 5 -14 0 -19 -2 -12 -5z"/>
<path d="M5518 17673 c7 -3 16 -2 19 1 4 3 -2 6 -13 5 -11 0 -14 -3 -6 -6z"/>
<path d="M5568 17663 c6 -2 18 -2 25 0 6 3 1 5 -13 5 -14 0 -19 -2 -12 -5z"/>
<path d="M5638 17653 c6 -2 18 -2 25 0 6 3 1 5 -13 5 -14 0 -19 -2 -12 -5z"/>
<path d="M5698 17643 c7 -3 16 -2 19 1 4 3 -2 6 -13 5 -11 0 -14 -3 -6 -6z"/>
<path d="M5748 17633 c6 -2 18 -2 25 0 6 3 1 5 -13 5 -14 0 -19 -2 -12 -5z"/>
<path d="M5803 17623 c9 -2 23 -2 30 0 6 3 -1 5 -18 5 -16 0 -22 -2 -12 -5z"/>
<path d="M5868 17613 c7 -3 16 -2 19 1 4 3 -2 6 -13 5 -11 0 -14 -3 -6 -6z"/>
<path d="M5938 17603 c7 -3 16 -2 19 1 4 3 -2 6 -13 5 -11 0 -14 -3 -6 -6z"/>
<path d="M6038 17583 c6 -2 18 -2 25 0 6 3 1 5 -13 5 -14 0 -19 -2 -12 -5z"/>
<path d="M6338 17533 c7 -3 16 -2 19 1 4 3 -2 6 -13 5 -11 0 -14 -3 -6 -6z"/>
<path d="M6530 17500 c8 -5 20 -10 25 -10 6 0 3 5 -5 10 -8 5 -19 10 -25 10
-5 0 -3 -5 5 -10z"/>
<path d="M6618 17483 c6 -2 18 -2 25 0 6 3 1 5 -13 5 -14 0 -19 -2 -12 -5z"/>
<path d="M6788 17453 c6 -2 18 -2 25 0 6 3 1 5 -13 5 -14 0 -19 -2 -12 -5z"/>
<path d="M6910 17436 c0 -2 9 -6 20 -9 11 -3 18 -1 14 4 -5 9 -34 13 -34 5z"/>
<path d="M7148 17393 c7 -3 16 -2 19 1 4 3 -2 6 -13 5 -11 0 -14 -3 -6 -6z"/>
<path d="M7258 17373 c7 -3 16 -2 19 1 4 3 -2 6 -13 5 -11 0 -14 -3 -6 -6z"/>
<path d="M7308 17363 c6 -2 18 -2 25 0 6 3 1 5 -13 5 -14 0 -19 -2 -12 -5z"/>
<path d="M7493 17333 c9 -2 23 -2 30 0 6 3 -1 5 -18 5 -16 0 -22 -2 -12 -5z"/>
<path d="M7668 17303 c7 -3 16 -2 19 1 4 3 -2 6 -13 5 -11 0 -14 -3 -6 -6z"/>
<path d="M8238 17203 c7 -3 16 -2 19 1 4 3 -2 6 -13 5 -11 0 -14 -3 -6 -6z"/>
<path d="M1481 17153 c-1 -14 34 -165 144 -628 98 -414 142 -597 265 -1120 93
-392 110 -458 110 -428 0 13 -64 289 -134 578 -51 211 -129 541 -258 1095 -65
278 -126 518 -127 503z"/>
<path d="M5472 15029 c3 -8 36 -147 73 -309 36 -162 95 -421 130 -575 35 -154
98 -431 140 -615 42 -184 94 -414 116 -510 22 -96 53 -233 69 -305 80 -355
129 -567 132 -570 2 -1 109 15 238 36 278 46 687 112 855 139 66 11 190 31
275 45 86 13 198 32 250 40 100 15 113 17 555 90 154 25 350 56 435 70 85 14
250 40 365 59 116 19 314 51 440 71 127 20 240 40 253 45 12 5 22 18 22 28 0
10 -41 204 -90 432 -50 228 -95 435 -100 460 -5 25 -29 137 -54 250 -24 113
-67 311 -95 440 -62 287 -78 362 -101 465 -10 44 -21 99 -25 123 l-7 42 -81 0
c-45 0 -161 2 -257 5 -160 5 -904 17 -1840 30 -201 3 -437 7 -525 10 -88 3
-389 8 -669 11 -440 6 -509 5 -504 -7z m2302 -1458 c-9 -9 -34 -9 -34 -1 0 5
9 8 20 7 10 -1 17 -3 14 -6z m-174 -21 c0 -5 -5 -10 -11 -10 -5 0 -7 5 -4 10
3 6 8 10 11 10 2 0 4 -4 4 -10z m417 -82 c-3 -8 -6 -5 -6 6 -1 11 2 17 5 13 3
-3 4 -12 1 -19z m-547 -18 c0 -5 -5 -10 -11 -10 -5 0 -7 5 -4 10 3 6 8 10 11
10 2 0 4 -4 4 -10z m-10 -30 c0 -5 -5 -10 -11 -10 -5 0 -7 5 -4 10 3 6 8 10
11 10 2 0 4 -4 4 -10z m-723 -32 c-3 -8 -6 -5 -6 6 -1 11 2 17 5 13 3 -3 4
-12 1 -19z"/>
<path d="M2000 14953 c0 -10 33 -152 150 -643 112 -473 172 -724 220 -930 27
-113 78 -330 114 -482 37 -153 95 -401 130 -550 36 -150 134 -568 220 -928 85
-360 167 -708 182 -774 16 -65 30 -113 32 -107 3 10 -6 53 -73 336 -14 55 -74
312 -135 570 -123 520 -236 996 -280 1180 -16 66 -83 352 -150 635 -147 626
-196 833 -261 1100 -28 113 -59 246 -70 295 -50 224 -79 333 -79 298z"/>
<path d="M9625 10603 c-120 -37 -1477 -481 -1908 -623 -148 -48 -271 -91 -274
-93 -3 -3 0 -22 7 -41 10 -32 14 -35 38 -30 30 8 2090 695 2135 713 16 6 33 8
39 5 7 -4 8 -2 4 5 -8 12 56 81 75 81 5 0 9 5 9 10 0 13 2 14 -125 -27z"/>
<path d="M3050 10516 c0 -5 39 -173 86 -375 48 -201 94 -400 104 -441 81 -347
105 -441 108 -431 3 9 -31 162 -153 671 -19 80 -57 242 -85 360 -46 190 -60
242 -60 216z"/>
<path d="M10605 10308 c-170 -64 -275 -104 -525 -198 -85 -32 -181 -61 -213
-65 l-58 -7 3 -42 3 -41 68 -7 c38 -3 75 -9 82 -12 8 -3 38 1 67 9 29 8 71 17
93 21 31 5 36 8 21 13 -16 6 -14 9 15 20 19 8 54 22 79 34 25 11 56 21 70 22
57 4 102 18 88 26 -10 7 -9 9 5 9 9 0 17 3 17 8 0 7 60 31 90 36 9 1 22 6 30
11 34 22 56 35 79 45 14 6 31 20 38 30 8 11 20 20 27 20 8 0 19 14 26 31 8 17
29 47 48 65 19 19 29 34 21 33 -8 0 -86 -28 -174 -61z"/>
<path d="M9838 9706 c-26 -19 -22 -26 16 -26 30 0 56 14 45 24 -14 12 -47 13
-61 2z"/>
<path d="M17092 9641 c-62 -22 -128 -52 -148 -67 -20 -16 -47 -36 -60 -44 -13
-8 -24 -18 -24 -21 0 -3 41 -12 91 -19 l90 -13 95 94 c52 51 94 97 94 101 0
13 -21 9 -138 -31z"/>
<path d="M14065 9578 c-11 -6 -22 -15 -25 -19 -6 -9 -78 -59 -85 -59 -2 0 -17
-12 -32 -27 l-28 -27 30 19 c17 10 55 34 85 52 75 45 109 73 90 72 -8 0 -24
-5 -35 -11z"/>
<path d="M13840 9427 c-14 -7 -45 -26 -69 -42 -24 -17 -54 -36 -67 -43 -13 -7
-24 -18 -24 -23 0 -12 -3 -13 108 58 45 29 82 55 82 58 0 6 1 6 -30 -8z"/>
<path d="M13626 9294 c-9 -8 -20 -13 -25 -10 -5 3 -12 -1 -15 -10 -3 -8 -22
-22 -41 -30 -19 -8 -35 -19 -35 -25 0 -6 -7 -9 -15 -5 -9 3 -20 -3 -27 -14 -7
-11 -17 -20 -23 -20 -6 0 -27 -14 -48 -31 -20 -17 -37 -26 -37 -21 0 20 -32 7
-45 -18 -8 -15 -29 -33 -46 -41 -45 -18 -149 -89 -149 -100 0 -6 -5 -7 -11 -4
-6 4 -17 -2 -25 -14 -8 -12 -26 -21 -38 -21 -13 0 -26 -7 -30 -15 -3 -8 -10
-15 -17 -15 -6 0 -24 -11 -41 -25 -16 -14 -35 -25 -43 -25 -7 0 -18 -7 -25
-15 -7 -8 -16 -13 -20 -10 -4 3 -13 -2 -20 -10 -28 -34 -126 -91 -152 -89 -21
2 -28 -3 -37 -27 -5 -16 -6 -29 -2 -29 8 0 227 136 331 205 19 13 121 77 225
142 105 65 224 140 265 166 41 27 99 63 128 82 29 18 49 36 43 39 -5 3 -16 -1
-25 -10z"/>
<path d="M8716 9249 c-25 -25 -16 -33 28 -25 40 8 55 24 35 37 -21 13 -42 10
-63 -12z"/>
<path d="M3351 9234 c0 -11 3 -14 6 -6 3 7 2 16 -1 19 -3 4 -6 -2 -5 -13z"/>
<path d="M4715 9215 c-5 -3 -104 -20 -219 -40 -115 -20 -274 -48 -355 -64
-258 -51 -373 -70 -508 -86 -155 -18 -209 -19 -218 -5 -4 6 -17 52 -31 103
-13 50 -22 78 -19 60 3 -24 0 -35 -13 -42 -16 -9 -16 -12 2 -41 16 -27 16 -35
5 -56 -18 -34 -7 -41 86 -58 44 -8 118 -22 163 -30 64 -12 95 -13 132 -5 40 8
85 5 266 -22 220 -33 263 -36 341 -24 35 6 43 4 52 -14 6 -11 9 -31 5 -45 -3
-13 -1 -27 5 -31 6 -3 9 -10 7 -14 -5 -7 58 -21 389 -87 178 -35 517 -95 525
-92 12 4 -576 598 -592 597 -7 0 -17 -2 -23 -4z"/>
<path d="M7340 9071 c-85 -32 -270 -102 -410 -155 -140 -53 -406 -154 -590
-223 l-335 -126 -123 -2 c-141 -2 -174 -15 -80 -33 321 -61 503 -90 510 -79 4
6 5 15 2 19 -5 8 20 15 67 21 15 1 33 8 41 15 8 7 43 15 77 18 60 7 82 18 40
21 -12 1 -27 7 -32 12 -8 8 1 11 30 11 26 0 50 7 67 21 17 13 50 23 94 29 37
4 61 8 55 9 -21 2 -15 21 7 21 11 0 20 5 20 10 0 6 9 10 21 10 11 0 33 8 47
18 40 28 83 41 122 38 39 -3 62 3 56 13 -12 18 19 33 124 60 63 16 111 30 105
30 -5 1 8 10 30 20 22 10 46 25 54 34 7 10 25 17 40 17 38 0 72 11 66 21 -3 4
-12 6 -21 2 -12 -4 -13 -1 -5 20 14 37 64 131 73 137 4 3 6 16 5 28 -1 12 -1
22 -2 21 0 0 -70 -26 -155 -58z"/>
<path d="M11038 9113 c6 -2 18 -2 25 0 6 3 1 5 -13 5 -14 0 -19 -2 -12 -5z"/>
<path d="M5492 9060 c-12 -5 -27 -21 -33 -34 -10 -22 -8 -29 19 -61 32 -36
112 -194 112 -221 0 -19 35 -18 65 2 25 17 55 80 55 119 0 41 -30 118 -58 148
-49 53 -104 69 -160 47z"/>
<path d="M11405 9060 c3 -5 10 -10 16 -10 5 0 9 5 9 10 0 6 -7 10 -16 10 -8 0
-12 -4 -9 -10z"/>
<path d="M2823 8900 c0 -25 2 -35 4 -22 2 12 2 32 0 45 -2 12 -4 2 -4 -23z"/>
<path d="M2834 8735 c0 -55 1 -76 3 -47 2 29 2 74 0 100 -2 26 -3 2 -3 -53z"/>
<path d="M10180 8701 c0 -10 25 -21 48 -21 12 1 10 5 -8 15 -29 17 -40 18 -40
6z"/>
<path d="M12592 8647 c-18 -7 -36 -17 -40 -23 -4 -6 -22 -19 -40 -28 -18 -9
-42 -26 -53 -37 -10 -10 -25 -19 -33 -19 -7 0 -19 -7 -26 -15 -25 -30 -1 -25
56 12 33 22 88 58 124 81 67 43 69 49 12 29z"/>
<path d="M10580 8630 c20 -13 43 -13 35 0 -3 6 -16 10 -28 10 -18 0 -19 -2 -7
-10z"/>
<path d="M2838 8563 c5 -119 9 -131 10 -30 1 53 -1 97 -5 97 -5 0 -7 -30 -5
-67z"/>
<path d="M12316 8475 c-3 -8 -17 -15 -31 -15 -15 0 -25 -6 -25 -14 0 -13 -102
-76 -123 -76 -5 0 -18 -11 -29 -25 -11 -14 -26 -25 -34 -25 -8 0 -22 -8 -32
-17 -32 -30 -60 -43 -97 -43 -27 0 -35 -4 -35 -18 0 -28 -30 -56 -80 -76 -25
-10 -47 -21 -50 -25 -3 -4 -30 -22 -60 -41 -30 -19 -59 -40 -63 -47 -4 -7 -16
-13 -26 -13 -10 0 -26 -12 -36 -26 -9 -15 -13 -24 -9 -21 8 5 163 101 314 195
30 18 81 50 112 70 32 21 123 78 202 127 80 50 145 93 146 98 0 14 -38 7 -44
-8z"/>
<path d="M2844 8400 c0 -11 4 -20 8 -20 4 0 8 9 8 20 0 11 -4 20 -8 20 -4 0
-8 -9 -8 -20z"/>
<path d="M2852 8288 c-1 -48 1 -89 6 -91 4 -3 6 23 4 56 -5 111 -9 124 -10 35z"/>
<path d="M9247 8168 c14 -18 23 -58 12 -58 -4 0 -6 -7 -2 -16 5 -14 7 -14 14
-2 10 18 -8 88 -23 88 -7 0 -7 -4 -1 -12z"/>
<path d="M2866 7980 c3 -107 7 -217 9 -245 2 -27 9 -176 16 -330 6 -154 12
-296 14 -315 1 -19 3 -70 4 -112 0 -43 4 -78 9 -78 6 0 -5 334 -22 625 -3 55
-10 215 -16 355 -13 312 -20 363 -14 100z"/>
<path d="M9157 8154 c-37 -20 -39 -70 -1 -84 14 -6 30 -10 35 -10 11 0 12 97
1 103 -4 3 -19 -1 -35 -9z"/>
<path d="M9640 8096 c0 -2 7 -9 15 -16 9 -7 15 -8 15 -2 0 5 -7 12 -15 16 -8
3 -15 4 -15 2z"/>
<path d="M9258 8053 c7 -3 16 -2 19 1 4 3 -2 6 -13 5 -11 0 -14 -3 -6 -6z"/>
<path d="M10000 7984 c0 -2 10 -8 21 -15 17 -8 20 -8 17 2 -4 11 -38 23 -38
13z"/>
<path d="M11513 7970 c-10 -11 -25 -20 -33 -20 -9 0 -27 -12 -41 -26 -13 -15
-43 -35 -67 -46 -24 -11 -46 -26 -49 -34 -3 -10 -10 -11 -23 -4 -13 7 -19 4
-28 -14 -5 -13 -30 -32 -54 -44 -53 -26 -95 -58 -86 -67 5 -6 407 241 433 266
5 5 1 9 -13 9 -12 0 -30 -9 -39 -20z"/>
<path d="M9941 7949 c-1 -10 9 -19 24 -21 13 -3 22 -1 19 3 -3 5 -11 9 -19 9
-7 0 -16 6 -18 13 -4 7 -6 6 -6 -4z"/>
<path d="M10785 7790 c-3 -5 -1 -10 4 -10 6 0 11 5 11 10 0 6 -2 10 -4 10 -3
0 -8 -4 -11 -10z"/>
<path d="M2914 6863 c3 -16 8 -111 11 -213 3 -102 8 -212 10 -245 4 -54 7
-129 20 -440 13 -321 16 -386 20 -445 2 -36 7 -132 10 -215 3 -82 8 -184 10
-225 3 -41 7 -136 10 -210 8 -202 15 -292 27 -322 9 -25 28 -33 197 -88 204
-68 2907 -963 5446 -1806 891 -295 1843 -611 2115 -701 586 -194 1428 -473
2632 -872 482 -160 887 -291 900 -291 38 0 40 11 5 30 -33 18 -184 68 -1887
630 -569 188 -1305 431 -1635 540 -330 110 -872 289 -1205 399 -1916 633
-2897 956 -3475 1148 -357 118 -855 282 -1105 365 -250 82 -761 251 -1135 375
-374 123 -714 236 -755 249 -41 13 -80 28 -86 32 -7 4 -13 66 -17 157 -17 400
-37 828 -42 895 -2 41 -7 145 -10 230 -4 85 -8 173 -10 195 -2 22 -7 126 -10
230 -4 105 -9 197 -10 206 -2 8 -6 106 -10 217 -5 115 -12 202 -17 202 -5 0
-7 -12 -4 -27z"/>
<path d="M5318 5861 c18 -17 40 -47 48 -66 13 -32 13 -42 -1 -87 -11 -39 -15
-102 -15 -262 1 -331 18 -835 31 -897 12 -55 13 -55 68 -77 31 -13 216 -72
411 -133 497 -155 568 -177 646 -194 128 -29 159 -43 178 -78 16 -30 16 8 11
703 -3 426 -9 738 -15 744 -10 10 -142 47 -595 166 -38 10 -178 48 -310 83
-132 36 -287 77 -345 92 -58 15 -114 29 -125 32 -15 4 -12 -2 13 -26z m300
-1123 c5 -24 12 -50 16 -58 4 -9 0 -24 -8 -35 -12 -16 -16 -17 -29 -6 -10 8
-25 10 -39 6 -20 -7 -19 -4 9 24 18 17 28 31 22 31 -6 0 -8 9 -4 21 4 12 9 29
10 38 5 21 4 21 9 21 2 0 9 -19 14 -42z m922 -488 c0 -5 -5 -10 -11 -10 -5 0
-7 5 -4 10 3 6 8 10 11 10 2 0 4 -4 4 -10z"/>
<path d="M8501 5007 c15 -13 41 -51 59 -83 18 -32 55 -86 82 -119 27 -33 63
-88 79 -122 39 -79 48 -170 57 -633 l7 -335 71 -30 c38 -16 107 -45 151 -63
61 -25 99 -48 150 -95 64 -58 152 -127 266 -208 27 -19 106 -64 175 -100 107
-55 130 -71 149 -104 l21 -38 6 44 c3 24 10 316 16 649 5 333 12 671 15 752 5
134 4 148 -12 156 -16 9 -1217 331 -1288 346 l-30 6 26 -23z"/>
</g>
</svg>
