<?xml version="1.0" standalone="no"?>
<!DOCTYPE svg PUBLIC "-//W3C//DTD SVG 20010904//EN"
 "http://www.w3.org/TR/2001/REC-SVG-20010904/DTD/svg10.dtd">
<svg version="1.0" xmlns="http://www.w3.org/2000/svg"
 width="384.000000pt" height="384.000000pt" viewBox="0 0 384.000000 384.000000"
 preserveAspectRatio="xMidYMid meet">

<g transform="translate(0.000000,384.000000) scale(0.100000,-0.100000)"
fill="#000000" stroke="none">
<path d="M0 1920 l0 -1920 1920 0 1920 0 0 1920 0 1920 -1920 0 -1920 0 0
-1920z m2069 1760 c212 -19 417 -74 599 -161 103 -50 116 -64 86 -93 -17 -17
-12 -19 -144 42 -213 97 -432 144 -680 144 -172 1 -266 -10 -415 -47 -671
-167 -1169 -721 -1266 -1410 -16 -111 -15 -341 0 -455 15 -106 61 -287 97
-377 62 -156 186 -368 285 -484 26 -31 29 -40 20 -58 -18 -32 -35 -26 -86 32
-175 197 -323 520 -377 816 -30 166 -30 431 0 593 31 164 83 328 147 462 317
662 1010 1060 1734 996z m1141 -175 c0 -14 -21 -44 -111 -155 -70 -88 -645
-809 -822 -1032 -78 -99 -83 -103 -111 -92 -33 13 -13 52 97 189 61 77 192
242 291 365 98 124 186 234 195 245 9 11 103 129 209 262 106 133 198 243 205
246 15 5 47 -14 47 -28z m-2258 -424 c25 -12 62 -38 82 -57 67 -65 61 -53 326
-679 39 -93 77 -176 84 -183 14 -14 57 79 221 473 209 505 183 455 240 455 33
0 45 -4 45 -15 0 -12 -125 -317 -160 -390 -6 -11 -89 -204 -185 -430 -96 -225
-182 -415 -191 -422 -9 -6 -22 -9 -29 -7 -7 3 -43 78 -80 167 -72 173 -178
422 -200 472 -7 17 -34 82 -60 145 -151 368 -177 413 -267 440 -37 10 -50 35
-30 54 15 16 157 0 204 -23z m2331 -43 c67 -80 153 -209 202 -309 279 -555
256 -1178 -65 -1719 -119 -200 -358 -442 -568 -574 -71 -44 -252 -132 -330
-160 -109 -39 -264 -76 -382 -92 -325 -43 -699 19 -990 166 -79 40 -92 54 -68
78 18 18 35 15 112 -21 147 -70 283 -112 456 -144 132 -23 421 -23 545 1 391
75 682 230 942 499 416 432 569 1042 407 1622 -60 216 -167 426 -302 594 -49
60 -61 89 -45 104 17 18 45 3 86 -45z m-751 -993 c92 -20 184 -62 237 -110 52
-47 71 -108 71 -227 0 -86 -1 -88 -24 -88 -20 0 -25 7 -35 48 -31 124 -103
222 -197 268 -70 34 -198 43 -294 20 -35 -8 -66 -13 -68 -11 -5 4 32 59 61 93
18 19 30 22 98 22 43 0 111 -7 151 -15z m-536 -427 c-32 -199 -31 -317 4 -447
62 -231 219 -351 445 -339 142 8 240 61 336 183 28 36 55 65 59 65 5 0 16 -7
24 -16 15 -14 14 -19 -8 -57 -64 -109 -154 -188 -268 -235 -84 -35 -292 -44
-384 -17 -100 29 -175 73 -251 150 -108 108 -167 244 -179 415 l-6 75 108 133
c59 72 112 132 117 132 6 0 7 -17 3 -42z m-312 6 c9 -8 16 -19 16 -23 0 -4
-29 -43 -63 -86 -35 -44 -173 -217 -306 -385 -133 -168 -268 -336 -300 -375
-32 -38 -118 -146 -191 -240 -127 -161 -156 -194 -172 -195 -9 0 -38 29 -38
39 0 4 102 135 227 292 126 157 349 437 496 622 148 185 275 344 283 352 19
19 29 19 48 -1z"/>
</g>
</svg>
